<svg height="73" viewBox="0 0 73 73" width="73" xmlns="http://www.w3.org/2000/svg"><g fill="none" fill-rule="nonzero"><rect fill="#fff" height="71" rx="14" stroke="#6f2502" stroke-width="2" width="71" x="1" y="1"/><g transform="translate(11 11)"><path d="m25.5 8.96484375c-9.0548034 0-16.53515625 7.48035285-16.53515625 16.53515625 0 9.0544922 7.48035285 16.5351562 16.53515625 16.5351562s16.5351562-7.480664 16.5351562-16.5351562c0-9.0548034-7.4803528-16.53515625-16.5351562-16.53515625z" fill="#7ed8f6"/><path d="m42.0351562 25.5c0 9.0544922-7.4803528 16.5351562-16.5351562 16.5351562v-33.07031245c9.0548034 0 16.5351562 7.48035285 16.5351562 16.53515625z" fill="#6aa9ff"/><path d="m51 25.5c0 5.7371887-1.9722656 11.4849609-5.5880859 15.9673828l-2.3308594-1.8527344c3.2273437-4.0341796 4.9306641-8.9751159 4.9306641-14.1146484 0-12.3714844-10.1402344-22.51171875-22.5117188-22.51171875s-22.51171875 10.14023435-22.51171875 22.51171875 10.14023435 22.5117188 22.51171875 22.5117188c3.9445313 0 7.7994141-1.0458985 11.2060547-3.0181641l1.4941406 2.5998047c-3.8548828 2.2412109-8.2476562 3.4066406-12.7001953 3.4066406-14.0150391 0-25.5-11.4849609-25.5-25.5s11.4849609-25.5 25.5-25.5 25.5 11.4849609 25.5 25.5z" fill="#ff9100"/><g fill="#ff641a" transform="translate(25.5)"><path d="m11.2060547 44.9935547 1.4941406 2.5998047c-3.8548828 2.2412109-8.24765624 3.4066406-12.7001953 3.4066406v-2.9882813c3.94453125 0 7.79941406-1.0458984 11.2060547-3.018164z"/><path d="m25.5 25.5c0 5.7371887-1.9722656 11.4849609-5.5880859 15.9673828l-2.3308594-1.8527344c3.2273437-4.0341797 4.9306641-8.9751159 4.9306641-14.1146484 0-12.3714844-10.1402344-22.51171875-22.5117188-22.51171875v-2.98828125c14.0150391 0 25.5 11.4849609 25.5 25.5z"/><path d="m25.5 42.0351562h-8.9648438v-8.9648437h2.9882813v5.9765625h5.9765625z"/></g></g></g></svg>